<svg width="141" height="135" viewBox="0 0 141 135" fill="none" xmlns="http://www.w3.org/2000/svg">
    <path d="M71.185 37.3366C66.1543 46.6265 66.2557 57.8677 71.4821 67.0761L73.3404 70.3502L46.0303 89.3698L44.8703 88.3861C24.3726 71.0021 22.2375 40.1705 40.0691 20.1301L71.185 37.3366Z" stroke="white" stroke-width="2.5"/>
    <path d="M92.0864 129.547C117.66 121.82 134.172 97.0939 131.558 70.5535L94.7246 74.6998C93.8042 85.8 87.5085 95.7593 77.8539 101.349L74.673 103.19L89.251 130.403L92.0864 129.547Z" stroke="white" stroke-width="2.5"/>
    <path d="M90.2327 54.8924L124.76 49.5432C127.913 54.3562 129.989 59.7955 130.843 65.4883L130.927 66.0513L94.4338 69.4573C93.7564 64.4225 92.3409 59.5148 90.2327 54.8924Z" stroke="white" stroke-width="2.5"/>
    <path d="M87.6168 21.5872L57.8428 4.0028C53.0408 7.33769 48.6181 11.1885 44.6538 15.4865L44.2925 15.8783L73.8975 32.8647L77.6794 28.6378C80.4247 25.5695 83.8221 23.1615 87.6168 21.5872Z" stroke="white" stroke-width="2.5"/>
</svg>
